<svg xmlns="http://www.w3.org/2000/svg" xmlns:xlink="http://www.w3.org/1999/xlink" fill="#ffcc00" version="1.1" id="Capa_1" width="800px" height="800px" viewBox="0 0 571.403 571.403" xml:space="preserve">
<g>
	<g>
		<path d="M521.345,425.167c-45.408,37.885-151.069,54.844-235.648,54.844c-84.572,0-190.234-16.955-235.644-54.838    c-9.737-8.125-24.211-6.812-32.323,2.918c-8.118,9.734-6.814,24.205,2.919,32.324c48.428,40.398,149.989,65.492,265.048,65.492    c115.068,0,216.633-25.098,265.052-65.498c9.733-8.123,11.037-22.596,2.919-32.324    C545.546,418.352,531.072,417.047,521.345,425.167z" fill="#ffcc00"/>
		<path d="M563.597,174.442c-5.4-3.026-12.078-2.516-16.934,1.3c-0.396,0.312-40.074,30.964-90.282,30.964    c-65.176,0-117.795-50.937-156.4-151.4c-2.271-5.912-7.949-9.81-14.28-9.81c-6.332,0-12.011,3.898-14.281,9.81    c-38.602,100.46-91.225,151.4-156.397,151.4c-49.844,0-89.909-30.673-90.279-30.964c-4.869-3.812-11.542-4.327-16.938-1.3    c-5.389,3.029-8.427,9.002-7.699,15.141l23.647,199.42c0.453,3.848,2.354,7.375,5.306,9.879    c46.484,39.344,144.827,63.787,256.643,63.787c111.812,0,210.151-24.439,256.639-63.787c2.956-2.5,4.854-6.031,5.307-9.879    l23.647-199.42C572.024,183.444,568.982,177.471,563.597,174.442z M295.287,411.67l-26.032-39.268l-20.285-30.6l46.316-69.873    l46.315,69.869l-20.284,30.6L295.287,411.67z M88.984,341.799c0-15.092,10.79-27.326,24.101-27.326    c13.311,0,24.101,12.234,24.101,27.326s-10.79,27.326-24.101,27.326C99.774,369.125,88.984,356.891,88.984,341.799z     M473.703,369.206c-13.348,0-24.171-12.268-24.171-27.402s10.823-27.402,24.171-27.402s24.171,12.268,24.171,27.402    S487.051,369.206,473.703,369.206z" fill="#ffcc00"/>
	</g>
</g>
</svg>